P2
3 2 255
24 128 200 
0 255 255 
