P2
3 2 255
255 255 0 
200 128 0 
