P2
3 2 255
200 128 24
255 255 255